<svg width="48" height="48" viewBox="0 0 48 48" fill="none" xmlns="http://www.w3.org/2000/svg">
<circle cx="24" cy="24" r="24" fill="#002FEE"/>
<path d="M18.976 29.024H12.688L11.68 32H7.384L13.48 15.152H18.232L24.328 32H19.984L18.976 29.024ZM17.92 25.856L15.832 19.688L13.768 25.856H17.92ZM36.3833 23.36C37.3593 23.568 38.1433 24.056 38.7353 24.824C39.3273 25.576 39.6233 26.44 39.6233 27.416C39.6233 28.824 39.1273 29.944 38.1353 30.776C37.1593 31.592 35.7913 32 34.0313 32H26.1833V15.152H33.7673C35.4793 15.152 36.8153 15.544 37.7753 16.328C38.7513 17.112 39.2393 18.176 39.2393 19.52C39.2393 20.512 38.9753 21.336 38.4473 21.992C37.9353 22.648 37.2473 23.104 36.3833 23.36ZM30.2873 21.968H32.9753C33.6473 21.968 34.1593 21.824 34.5113 21.536C34.8793 21.232 35.0633 20.792 35.0633 20.216C35.0633 19.64 34.8793 19.2 34.5113 18.896C34.1593 18.592 33.6473 18.44 32.9753 18.44H30.2873V21.968ZM33.3113 28.688C33.9993 28.688 34.5273 28.536 34.8953 28.232C35.2793 27.912 35.4713 27.456 35.4713 26.864C35.4713 26.272 35.2713 25.808 34.8713 25.472C34.4873 25.136 33.9513 24.968 33.2633 24.968H30.2873V28.688H33.3113Z" fill="white"/>
</svg>
