<svg width="1098" height="1647" viewBox="0 0 1098 1647" fill="none" xmlns="http://www.w3.org/2000/svg">
<path d="M274.5 1647C426.024 1647 549 1524.02 549 1372.5V1098H274.5C122.976 1098 0 1220.98 0 1372.5C0 1524.02 122.976 1647 274.5 1647Z" fill="#0ACF83"/>
<path d="M0 823.5C0 671.976 122.976 549 274.5 549H549V1098H274.5C122.976 1098 0 975.024 0 823.5Z" fill="#A259FF"/>
<path d="M0 274.5C0 122.976 122.976 0 274.5 0H549V549H274.5C122.976 549 0 426.024 0 274.5Z" fill="#F24E1E"/>
<path d="M549 0H823.5C975.024 0 1098 122.976 1098 274.5C1098 426.024 975.024 549 823.5 549H549V0Z" fill="#FF7262"/>
<path d="M1098 823.5C1098 975.024 975.024 1098 823.5 1098C671.976 1098 549 975.024 549 823.5C549 671.976 671.976 549 823.5 549C975.024 549 1098 671.976 1098 823.5Z" fill="#1ABCFE"/>
</svg>
