<svg width="366" height="38" viewBox="0 0 366 38" fill="none" xmlns="http://www.w3.org/2000/svg">
<path d="M23.85 30.35H9.95L7.65 37H0.3L12.85 2.05H21L33.55 37H26.15L23.85 30.35ZM21.95 24.75L16.9 10.15L11.85 24.75H21.95ZM76.641 9.3L68.541 37H60.991L55.941 17.65L50.891 37H43.291L35.141 9.3H42.241L47.141 30.4L52.441 9.3H59.841L65.041 30.35L69.941 9.3H76.641ZM106.179 22.55C106.179 23.55 106.112 24.45 105.979 25.25H85.7285C85.8952 27.25 86.5952 28.8167 87.8285 29.95C89.0618 31.0833 90.5785 31.65 92.3785 31.65C94.9785 31.65 96.8285 30.5333 97.9285 28.3H105.479C104.679 30.9667 103.145 33.1667 100.879 34.9C98.6119 36.6 95.8285 37.45 92.5285 37.45C89.8618 37.45 87.4618 36.8667 85.3285 35.7C83.2285 34.5 81.5785 32.8167 80.3785 30.65C79.2118 28.4833 78.6285 25.9833 78.6285 23.15C78.6285 20.2833 79.2118 17.7667 80.3785 15.6C81.5452 13.4333 83.1785 11.7667 85.2785 10.6C87.3785 9.43333 89.7952 8.85 92.5285 8.85C95.1618 8.85 97.5118 9.41667 99.5785 10.55C101.679 11.6833 103.295 13.3 104.429 15.4C105.595 17.4667 106.179 19.85 106.179 22.55ZM98.9285 20.55C98.8952 18.75 98.2452 17.3167 96.9785 16.25C95.7118 15.15 94.1618 14.6 92.3285 14.6C90.5952 14.6 89.1285 15.1333 87.9285 16.2C86.7618 17.2333 86.0452 18.6833 85.7785 20.55H98.9285ZM126.638 8.9C129.938 8.9 132.605 9.95 134.638 12.05C136.671 14.1167 137.688 17.0167 137.688 20.75V37H130.688V21.7C130.688 19.5 130.138 17.8167 129.038 16.65C127.938 15.45 126.438 14.85 124.538 14.85C122.605 14.85 121.071 15.45 119.938 16.65C118.838 17.8167 118.288 19.5 118.288 21.7V37H111.288V9.3H118.288V12.75C119.221 11.55 120.405 10.6167 121.838 9.95C123.305 9.25 124.905 8.9 126.638 8.9ZM176.059 19.1C178.025 19.4667 179.642 20.45 180.909 22.05C182.175 23.65 182.809 25.4833 182.809 27.55C182.809 29.4167 182.342 31.0667 181.409 32.5C180.509 33.9 179.192 35 177.459 35.8C175.725 36.6 173.675 37 171.309 37H156.259V2.1H170.659C173.025 2.1 175.059 2.48333 176.759 3.25C178.492 4.01667 179.792 5.08333 180.659 6.45C181.559 7.81666 182.009 9.36666 182.009 11.1C182.009 13.1333 181.459 14.8333 180.359 16.2C179.292 17.5667 177.859 18.5333 176.059 19.1ZM163.259 16.5H169.659C171.325 16.5 172.609 16.1333 173.509 15.4C174.409 14.6333 174.859 13.55 174.859 12.15C174.859 10.75 174.409 9.66666 173.509 8.9C172.609 8.13333 171.325 7.75 169.659 7.75H163.259V16.5ZM170.309 31.3C172.009 31.3 173.325 30.9 174.259 30.1C175.225 29.3 175.709 28.1667 175.709 26.7C175.709 25.2 175.209 24.0333 174.209 23.2C173.209 22.3333 171.859 21.9 170.159 21.9H163.259V31.3H170.309ZM200.688 37.45C198.021 37.45 195.621 36.8667 193.488 35.7C191.354 34.5 189.671 32.8167 188.438 30.65C187.238 28.4833 186.638 25.9833 186.638 23.15C186.638 20.3167 187.254 17.8167 188.488 15.65C189.754 13.4833 191.471 11.8167 193.638 10.65C195.804 9.45 198.221 8.85 200.888 8.85C203.554 8.85 205.971 9.45 208.138 10.65C210.304 11.8167 212.004 13.4833 213.238 15.65C214.504 17.8167 215.138 20.3167 215.138 23.15C215.138 25.9833 214.488 28.4833 213.187 30.65C211.921 32.8167 210.188 34.5 207.988 35.7C205.821 36.8667 203.388 37.45 200.688 37.45ZM200.688 31.35C201.954 31.35 203.138 31.05 204.238 30.45C205.371 29.8167 206.271 28.8833 206.938 27.65C207.604 26.4167 207.938 24.9167 207.938 23.15C207.938 20.5167 207.238 18.5 205.838 17.1C204.471 15.6667 202.788 14.95 200.788 14.95C198.788 14.95 197.104 15.6667 195.738 17.1C194.404 18.5 193.738 20.5167 193.738 23.15C193.738 25.7833 194.388 27.8167 195.688 29.25C197.021 30.65 198.688 31.35 200.688 31.35ZM246.422 9.3V37H239.372V33.5C238.472 34.7 237.289 35.65 235.822 36.35C234.389 37.0167 232.822 37.35 231.122 37.35C228.956 37.35 227.039 36.9 225.372 36C223.706 35.0667 222.389 33.7167 221.422 31.95C220.489 30.15 220.022 28.0167 220.022 25.55V9.3H227.022V24.55C227.022 26.75 227.572 28.45 228.672 29.65C229.772 30.8167 231.272 31.4 233.172 31.4C235.106 31.4 236.622 30.8167 237.722 29.65C238.822 28.45 239.372 26.75 239.372 24.55V9.3H246.422ZM260.329 13.6C261.229 12.1333 262.396 10.9833 263.829 10.15C265.296 9.31667 266.962 8.9 268.829 8.9V16.25H266.979C264.779 16.25 263.112 16.7667 261.979 17.8C260.879 18.8333 260.329 20.6333 260.329 23.2V37H253.329V9.3H260.329V13.6ZM271.744 23.05C271.744 20.25 272.294 17.7667 273.394 15.6C274.527 13.4333 276.06 11.7667 277.994 10.6C279.927 9.43333 282.077 8.85 284.444 8.85C286.244 8.85 287.96 9.25 289.594 10.05C291.227 10.8167 292.527 11.85 293.494 13.15V-4.76837e-07H300.594V37H293.494V32.9C292.627 34.2667 291.41 35.3667 289.844 36.2C288.277 37.0333 286.46 37.45 284.394 37.45C282.06 37.45 279.927 36.85 277.994 35.65C276.06 34.45 274.527 32.7667 273.394 30.6C272.294 28.4 271.744 25.8833 271.744 23.05ZM293.544 23.15C293.544 21.45 293.21 20 292.544 18.8C291.877 17.5667 290.977 16.6333 289.844 16C288.71 15.3333 287.494 15 286.194 15C284.894 15 283.694 15.3167 282.594 15.95C281.494 16.5833 280.594 17.5167 279.894 18.75C279.227 19.95 278.894 21.3833 278.894 23.05C278.894 24.7167 279.227 26.1833 279.894 27.45C280.594 28.6833 281.494 29.6333 282.594 30.3C283.727 30.9667 284.927 31.3 286.194 31.3C287.494 31.3 288.71 30.9833 289.844 30.35C290.977 29.6833 291.877 28.75 292.544 27.55C293.21 26.3167 293.544 24.85 293.544 23.15ZM319.73 37.45C317.064 37.45 314.664 36.8667 312.53 35.7C310.397 34.5 308.714 32.8167 307.48 30.65C306.28 28.4833 305.68 25.9833 305.68 23.15C305.68 20.3167 306.297 17.8167 307.53 15.65C308.797 13.4833 310.514 11.8167 312.68 10.65C314.847 9.45 317.264 8.85 319.93 8.85C322.597 8.85 325.014 9.45 327.18 10.65C329.347 11.8167 331.047 13.4833 332.28 15.65C333.547 17.8167 334.18 20.3167 334.18 23.15C334.18 25.9833 333.53 28.4833 332.23 30.65C330.964 32.8167 329.23 34.5 327.03 35.7C324.864 36.8667 322.43 37.45 319.73 37.45ZM319.73 31.35C320.997 31.35 322.18 31.05 323.28 30.45C324.414 29.8167 325.314 28.8833 325.98 27.65C326.647 26.4167 326.98 24.9167 326.98 23.15C326.98 20.5167 326.28 18.5 324.88 17.1C323.514 15.6667 321.83 14.95 319.83 14.95C317.83 14.95 316.147 15.6667 314.78 17.1C313.447 18.5 312.78 20.5167 312.78 23.15C312.78 25.7833 313.43 27.8167 314.73 29.25C316.064 30.65 317.73 31.35 319.73 31.35ZM354.665 8.9C357.965 8.9 360.632 9.95 362.665 12.05C364.699 14.1167 365.715 17.0167 365.715 20.75V37H358.715V21.7C358.715 19.5 358.165 17.8167 357.065 16.65C355.965 15.45 354.465 14.85 352.565 14.85C350.632 14.85 349.099 15.45 347.965 16.65C346.865 17.8167 346.315 19.5 346.315 21.7V37H339.315V9.3H346.315V12.75C347.249 11.55 348.432 10.6167 349.865 9.95C351.332 9.25 352.932 8.9 354.665 8.9Z" fill="#FAFAFF"/>
</svg>
