<svg width="64" height="64" viewBox="0 0 64 64" fill="none" xmlns="http://www.w3.org/2000/svg">
<path d="M29.9063 0.0499215C29.7688 0.0624203 29.3313 0.106166 28.9376 0.137413C19.8572 0.956083 11.3518 5.8556 5.96485 13.3861C2.96514 17.5732 1.04658 22.3227 0.321652 27.3535C0.0654266 29.1096 0.0341797 29.6283 0.0341797 32.0093C0.0341797 34.3903 0.0654266 34.909 0.321652 36.6651C2.05898 48.6702 10.6019 58.7567 22.1883 62.4938C24.2631 63.1625 26.4503 63.6187 28.9376 63.8937C29.9063 63.9999 34.0934 63.9999 35.062 63.8937C39.3553 63.4187 42.9925 62.3563 46.5796 60.5253C47.1296 60.244 47.2358 60.1691 47.1608 60.1066C47.1108 60.0691 44.7673 56.9256 41.9551 53.126L36.8431 46.2204L30.4375 36.7401C26.9128 31.5281 24.0131 27.266 23.9881 27.266C23.9631 27.2598 23.9381 31.4719 23.9256 36.6151C23.9068 45.6205 23.9006 45.9829 23.7881 46.1954C23.6256 46.5016 23.5006 46.6266 23.2382 46.7641C23.0382 46.8641 22.8632 46.8828 21.9195 46.8828H20.8384L20.5509 46.7016C20.3634 46.5829 20.226 46.4266 20.1322 46.2454L20.001 45.9642L20.0135 33.4342L20.0322 20.8979L20.226 20.6542C20.3259 20.5229 20.5384 20.3542 20.6884 20.2729C20.9446 20.148 21.0446 20.1355 22.1258 20.1355C23.4006 20.1355 23.6131 20.1855 23.9443 20.5479C24.0381 20.6479 27.5065 25.8724 31.6561 32.1655C35.8057 38.4587 41.4801 47.0516 44.2674 51.2699L49.3294 58.9379L49.5856 58.7692C51.8541 57.2943 54.2539 55.1945 56.1537 53.0073C60.1971 48.364 62.803 42.702 63.678 36.6651C63.9342 34.909 63.9654 34.3903 63.9654 32.0093C63.9654 29.6283 63.9342 29.1096 63.678 27.3535C61.9406 15.3484 53.3977 5.26191 41.8113 1.52478C39.7678 0.862342 37.593 0.406137 35.1557 0.131164C34.5558 0.0686697 30.425 -7.36158e-05 29.9063 0.0499215ZM42.9925 19.3855C43.2925 19.5355 43.5362 19.823 43.6237 20.123C43.6737 20.2854 43.6862 23.7601 43.6737 31.5906L43.6549 42.827L41.6739 39.7898L39.6866 36.7526V28.5846C39.6866 23.3039 39.7116 20.3354 39.749 20.1917C39.849 19.8417 40.0678 19.5668 40.3677 19.4043C40.624 19.273 40.7177 19.2605 41.6989 19.2605C42.6238 19.2605 42.7863 19.273 42.9925 19.3855Z" fill="black"/>
</svg>
